<svg width="1426" height="868" viewBox="0 0 1426 868" fill="none" xmlns="http://www.w3.org/2000/svg">
<g filter="url(#filter0_d_12_78)">
<path d="M53.52 226.32C52.4 226.32 51.12 225.76 49.68 224.64C48.24 223.52 47.52 222.32 47.52 221.04C47.52 219.6 49.12 215.92 52.32 210C55.52 204.08 60.64 195.2 67.68 183.36C74.72 171.52 83.92 156.16 95.28 137.28L126.72 84.72C128.48 81.52 130.64 77.76 133.2 73.44C135.76 69.12 138.88 64 142.56 58.08C143.52 56.64 144.56 55.92 145.68 55.92C146.8 55.92 147.92 56.48 149.04 57.6C150.16 58.56 150.72 59.6 150.72 60.72C150.72 61.36 146.72 68.48 138.72 82.08C130.72 95.52 118.64 115.6 102.48 142.32C96.4 152.4 89.76 163.52 82.56 175.68C75.52 187.84 68 201.04 60 215.28C106.4 202.8 142.08 196.56 167.04 196.56C174.56 196.56 180.8 197.84 185.76 200.4C190.88 202.8 193.44 205.2 193.44 207.6C193.44 210.32 192.08 211.68 189.36 211.68C187.12 211.68 186 210.48 186 208.08V207.36C184.4 206.56 181.68 205.92 177.84 205.44C174 204.96 169.6 204.72 164.64 204.72C158.56 204.72 151.68 205.28 144 206.4C136.32 207.36 128.48 208.64 120.48 210.24C112.64 211.68 105.28 213.2 98.4 214.8C91.68 216.24 85.28 217.76 79.2 219.36C73.28 221.12 67.76 222.64 62.64 223.92C59.6 224.56 57.36 225.12 55.92 225.6C54.64 226.08 53.84 226.32 53.52 226.32ZM235.228 220.32C228.508 220.32 223.228 218 219.388 213.36C215.548 208.72 213.628 203.04 213.628 196.32C213.628 184.8 217.468 172.96 225.148 160.8C227.228 157.44 229.628 154.16 232.348 150.96C235.068 147.6 238.028 144.4 241.228 141.36C246.028 136.72 251.068 132.88 256.348 129.84C261.628 126.8 266.748 125.28 271.708 125.28C279.868 125.28 283.948 129.12 283.948 136.8C283.948 146.4 278.348 155.12 267.148 162.96C256.748 170 246.508 173.52 236.428 173.52C234.668 173.52 233.068 173.44 231.628 173.28C230.348 172.96 229.148 172.64 228.028 172.32C226.428 175.36 224.988 179.28 223.708 184.08C222.428 188.88 221.788 193.04 221.788 196.56C221.788 207.12 226.428 212.4 235.708 212.4C243.228 212.4 250.348 211.12 257.068 208.56C263.788 205.84 271.788 200.8 281.068 193.44C286.828 188.96 291.148 185.36 294.028 182.64C296.908 179.92 300.028 177.04 303.388 174C304.348 173.36 305.228 173.04 306.028 173.04C306.828 173.04 307.628 173.28 308.428 173.76C309.228 174.24 309.628 174.96 309.628 175.92C309.628 177.68 308.028 180.16 304.828 183.36C302.108 185.92 299.228 188.64 296.188 191.52C293.148 194.24 288.348 198.08 281.788 203.04C274.748 208.48 267.068 212.72 258.748 215.76C250.428 218.8 242.588 220.32 235.228 220.32ZM234.988 165.84C240.108 165.84 244.988 165.04 249.628 163.44C254.268 161.84 258.668 159.52 262.828 156.48C272.108 149.6 276.748 143.12 276.748 137.04C276.748 134.32 275.068 132.96 271.708 132.96C265.308 132.96 257.868 136.88 249.388 144.72C245.228 148.56 241.788 152.08 239.068 155.28C236.508 158.32 234.108 161.68 231.868 165.36C232.828 165.68 233.868 165.84 234.988 165.84ZM305.923 218.4C296.643 218.4 292.003 214 292.003 205.2C292.003 199.44 293.363 193.28 296.083 186.72C298.963 180 302.803 173.52 307.603 167.28C312.403 160.88 317.763 155.12 323.683 150C329.603 144.72 335.683 140.56 341.923 137.52C348.163 134.32 354.163 132.72 359.923 132.72C370.163 132.72 375.283 137.76 375.283 147.84C375.283 154.4 373.683 157.68 370.483 157.68C367.603 157.68 366.163 156.32 366.163 153.6C366.163 152.48 366.403 151.36 366.883 150.24C367.523 148.96 367.843 147.6 367.843 146.16C367.843 141.68 364.803 139.44 358.723 139.44C348.963 139.44 336.723 146.88 322.003 161.76C318.483 165.44 315.043 169.76 311.683 174.72C308.323 179.68 305.523 184.72 303.283 189.84C301.203 194.8 300.163 199.52 300.163 204C300.163 208.32 302.563 210.48 307.363 210.48C311.523 210.48 315.923 209.2 320.563 206.64C325.363 204.08 329.523 201.44 333.043 198.72C340.083 193.44 347.283 186.24 354.643 177.12C355.763 175.84 357.203 174.16 358.963 172.08C360.723 170 362.723 167.68 364.963 165.12C365.763 164.32 366.723 163.92 367.843 163.92C370.403 163.92 371.683 165.2 371.683 167.76L362.563 181.44C356.483 190.4 353.443 197.76 353.443 203.52C353.443 207.68 355.443 209.76 359.443 209.76C362.803 209.76 366.483 208.88 370.483 207.12C374.483 205.36 377.763 203.6 380.323 201.84C385.443 198.48 390.803 194.32 396.403 189.36C402.003 184.24 407.363 179.12 412.483 174C413.123 173.36 414.083 173.04 415.363 173.04C417.763 173.04 418.963 174 418.963 175.92C418.963 177.68 417.843 179.68 415.603 181.92C409.203 188.32 403.443 193.84 398.323 198.48C393.203 202.96 388.323 206.64 383.683 209.52C380.643 211.28 376.883 213.12 372.403 215.04C367.923 216.96 362.803 217.92 357.043 217.92C349.203 217.92 345.283 213.76 345.283 205.44C345.283 202.24 345.683 199.6 346.483 197.52C331.923 211.44 318.403 218.4 305.923 218.4ZM396.188 222C393.628 222 392.348 220.96 392.348 218.88C392.348 217.92 392.588 216.96 393.068 216C393.708 215.04 394.188 214.24 394.508 213.6L416.348 169.44C425.628 150.56 430.268 140.08 430.268 138C430.268 135.76 431.388 134.64 433.628 134.64C436.668 134.64 438.188 136.16 438.188 139.2C438.188 140.8 437.468 143.36 436.028 146.88C434.588 150.4 432.748 154.48 430.508 159.12C426.668 167.44 423.468 173.84 420.908 178.32C425.708 172.72 430.588 167.44 435.548 162.48C440.508 157.52 445.548 152.8 450.668 148.32C465.868 135.04 477.548 128.4 485.708 128.4C491.308 128.4 494.108 131.04 494.108 136.32C494.108 141.44 492.428 144 489.068 144C487.468 144 486.268 142.64 485.468 139.92C484.988 138 483.868 137.04 482.108 137.04C479.388 137.04 474.108 140 466.268 145.92C457.628 152.32 448.908 159.92 440.108 168.72C431.468 177.52 422.268 188.72 412.508 202.32L400.508 219.12C399.868 219.92 399.228 220.56 398.588 221.04C398.108 221.68 397.308 222 396.188 222ZM473.297 222C470.737 222 469.457 220.96 469.457 218.88C469.457 218.08 469.777 217.12 470.417 216C471.057 214.72 471.617 213.68 472.097 212.88L493.697 169.44C502.977 150.56 507.617 140.08 507.617 138C507.617 135.76 508.737 134.64 510.977 134.64C514.017 134.64 515.537 136.24 515.537 139.44C515.537 140.56 514.817 142.96 513.377 146.64C511.937 150.32 510.097 154.48 507.857 159.12C504.017 167.44 500.817 173.84 498.257 178.32C503.057 172.72 507.937 167.44 512.897 162.48C517.857 157.52 522.897 152.8 528.017 148.32C543.217 135.04 554.897 128.4 563.057 128.4C568.657 128.4 571.457 131.04 571.457 136.32C571.457 141.12 567.377 151.92 559.217 168.72C551.057 185.68 546.977 196.4 546.977 200.88C546.977 202.96 547.697 204 549.137 204C549.617 204 550.337 203.84 551.297 203.52C552.417 203.04 553.537 202.8 554.657 202.8C557.377 202.8 558.737 204.08 558.737 206.64C558.737 209.84 555.297 211.44 548.417 211.44C545.217 211.44 542.897 210.72 541.457 209.28C540.017 207.68 539.297 205.6 539.297 203.04C539.297 195.36 543.217 183.68 551.057 168C558.897 152.48 562.817 143.12 562.817 139.92C562.817 138 562.097 137.04 560.657 137.04C557.137 137.04 551.457 140 543.617 145.92C535.137 152.32 526.657 159.68 518.177 168C509.697 176.32 501.617 185.84 493.937 196.56L477.137 219.84C476.177 221.28 474.897 222 473.297 222ZM628.688 121.44C625.968 121.44 624.608 120.08 624.608 117.36C624.608 116.56 625.168 115.12 626.288 113.04C627.408 110.8 628.688 108.56 630.128 106.32C631.568 104.08 632.688 102.56 633.488 101.76C636.208 98.72 638.288 96.8 639.728 96C641.328 95.2 642.768 94.8 644.048 94.8C647.408 94.8 649.088 96.32 649.088 99.36C649.088 100.48 648.368 101.84 646.928 103.44C645.648 104.88 644.128 106.24 642.368 107.52C639.808 109.12 638.208 110.4 637.568 111.36L632.288 118.8C632.128 119.44 631.728 120.08 631.088 120.72C630.608 121.2 629.808 121.44 628.688 121.44ZM587.888 218.64C583.408 218.64 580.128 217.76 578.048 216C576.128 214.24 575.168 211.6 575.168 208.08C575.168 204.72 576.208 200.16 578.288 194.4C580.368 188.48 583.008 182.16 586.208 175.44C589.568 168.72 593.088 162.32 596.768 156.24C600.448 150.16 603.968 145.2 607.328 141.36C610.848 137.36 613.648 135.36 615.728 135.36C618.608 135.36 620.048 136.64 620.048 139.2C620.048 140.8 618.688 143.84 615.968 148.32C613.248 152.8 610.288 157.44 607.088 162.24C605.808 164 604.048 166.4 601.808 169.44C599.568 172.48 597.408 175.36 595.328 178.08C593.248 180.64 591.888 182.4 591.248 183.36C589.648 185.76 587.968 189.68 586.208 195.12C584.288 200.56 583.328 204.72 583.328 207.6C583.328 208.88 583.568 209.84 584.048 210.48C584.688 211.12 586.048 211.44 588.128 211.44C592.128 211.44 596.608 210.16 601.568 207.6C606.528 205.04 611.568 201.84 616.688 198C621.808 194 626.608 189.92 631.088 185.76C635.728 181.6 639.648 178 642.848 174.96C643.488 174.32 644.448 174 645.728 174C648.128 174 649.328 174.96 649.328 176.88C649.328 178.64 648.208 180.64 645.968 182.88C641.648 187.2 637.648 191.04 633.968 194.4C630.288 197.76 626.768 200.72 623.408 203.28C618.128 207.12 612.288 210.64 605.888 213.84C599.488 217.04 593.488 218.64 587.888 218.64ZM627.281 222C624.721 222 623.441 220.96 623.441 218.88C623.441 218.08 623.761 217.12 624.401 216C625.041 214.72 625.601 213.68 626.081 212.88L647.681 169.44C656.961 150.56 661.601 140.08 661.601 138C661.601 135.76 662.721 134.64 664.961 134.64C668.001 134.64 669.521 136.24 669.521 139.44C669.521 140.56 668.801 142.96 667.361 146.64C665.921 150.32 664.081 154.48 661.841 159.12C658.001 167.44 654.801 173.84 652.241 178.32C657.041 172.72 661.921 167.44 666.881 162.48C671.841 157.52 676.881 152.8 682.001 148.32C697.201 135.04 708.881 128.4 717.041 128.4C722.641 128.4 725.441 131.04 725.441 136.32C725.441 141.12 721.361 151.92 713.201 168.72C705.041 185.68 700.961 196.4 700.961 200.88C700.961 202.96 701.681 204 703.121 204C703.601 204 704.321 203.84 705.281 203.52C706.401 203.04 707.521 202.8 708.641 202.8C711.361 202.8 712.721 204.08 712.721 206.64C712.721 209.84 709.281 211.44 702.401 211.44C699.201 211.44 696.881 210.72 695.441 209.28C694.001 207.68 693.281 205.6 693.281 203.04C693.281 195.36 697.201 183.68 705.041 168C712.881 152.48 716.801 143.12 716.801 139.92C716.801 138 716.081 137.04 714.641 137.04C711.121 137.04 705.441 140 697.601 145.92C689.121 152.32 680.641 159.68 672.161 168C663.681 176.32 655.601 185.84 647.921 196.56L631.121 219.84C630.161 221.28 628.881 222 627.281 222ZM735.632 294.96C728.912 294.96 723.872 292.4 720.512 287.28C717.152 282.32 715.472 276.64 715.472 270.24C715.472 265.44 715.712 260.72 716.192 256.08C716.512 251.6 717.072 247.12 717.872 242.64C718.352 240.08 719.472 238.8 721.232 238.8C724.432 238.8 726.032 240.48 726.032 243.84C726.032 244.8 725.792 246.24 725.312 248.16C724.832 249.76 724.592 250.96 724.592 251.76C724.272 254.32 724.032 256.96 723.872 259.68C723.712 262.56 723.632 265.44 723.632 268.32C723.632 280.96 728.272 287.28 737.552 287.28C740.272 287.28 743.392 285.44 746.912 281.76C750.592 278.08 753.872 274.08 756.752 269.76C763.472 259.68 770.592 243.76 778.112 222L786.032 199.2C773.072 214.72 761.392 222.48 750.992 222.48C744.592 222.48 739.632 220.08 736.112 215.28C732.592 210.48 730.832 204.64 730.832 197.76C730.832 184 736.912 168.8 749.072 152.16C762.352 134.4 775.392 125.52 788.192 125.52C798.272 125.52 804.912 131.44 808.112 143.28C814.192 128.56 819.792 121.2 824.912 121.2C826.832 121.2 827.792 122.8 827.792 126C827.792 132.4 824.832 140.96 818.912 151.68C817.632 153.76 816.032 156.32 814.112 159.36C812.352 162.4 810.352 166 808.112 170.16L799.952 190.08C798.352 193.92 796.352 198.8 793.952 204.72C791.552 210.48 788.832 217.28 785.792 225.12C782.272 234.72 778.992 242.96 775.952 249.84C773.072 256.88 770.432 262.64 768.032 267.12C757.632 285.68 747.152 294.96 736.592 294.96H735.632ZM750.992 214.08C761.072 214.08 775.952 200.56 795.632 173.52L802.592 155.76C801.472 154.96 800.672 153.28 800.192 150.72C798.752 143.84 797.072 139.28 795.152 137.04C793.232 134.8 790.672 133.68 787.472 133.68C783.792 133.68 779.552 135.36 774.752 138.72C769.952 142.08 765.392 146.24 761.072 151.2C756.752 156 753.312 160.72 750.752 165.36C743.072 178.48 739.232 189.76 739.232 199.2C739.232 209.12 743.152 214.08 750.992 214.08ZM966.454 226.32C953.334 226.32 941.734 223.68 931.654 218.4C921.574 213.12 913.654 205.68 907.894 196.08C902.134 186.32 899.254 175.04 899.254 162.24C899.254 148.64 901.974 136.24 907.414 125.04C912.854 113.84 920.694 103.6 930.934 94.32C960.054 67.92 994.694 54.72 1034.85 54.72C1043.33 54.72 1051.41 56.24 1059.09 59.28C1066.93 62.16 1073.33 66.48 1078.29 72.24C1083.25 77.84 1085.73 84.64 1085.73 92.64C1085.73 99.2 1083.73 104.8 1079.73 109.44C1078.77 110.72 1077.17 112.4 1074.93 114.48C1072.85 116.4 1071.01 117.36 1069.41 117.36C1068.13 117.36 1066.85 116.88 1065.57 115.92C1064.29 114.8 1063.65 113.68 1063.65 112.56C1063.65 111.76 1064.21 110.88 1065.33 109.92C1066.45 108.8 1068.13 107.2 1070.37 105.12C1074.69 100.8 1076.85 95.92 1076.85 90.48C1076.85 83.92 1074.53 78.48 1069.89 74.16C1065.41 69.84 1059.65 66.64 1052.61 64.56C1045.57 62.32 1038.13 61.2 1030.29 61.2C1012.69 61.2 995.494 64.96 978.694 72.48C962.054 79.84 947.334 89.92 934.534 102.72C926.054 111.2 919.494 120.48 914.854 130.56C910.374 140.48 908.134 151.6 908.134 163.92C908.134 174.16 909.974 182.72 913.654 189.6C917.494 196.48 922.374 202.08 928.294 206.4C934.374 210.72 941.014 213.92 948.214 216C955.414 217.92 962.294 218.88 968.854 218.88C976.534 218.88 984.694 217.84 993.334 215.76C1002.13 213.68 1010.69 210.88 1019.01 207.36C1027.49 203.68 1035.09 199.68 1041.81 195.36C1044.69 193.44 1047.01 191.76 1048.77 190.32C1050.69 188.88 1052.05 187.76 1052.85 186.96L1060.05 174.72C1061.97 171.52 1064.29 167.52 1067.01 162.72C1069.73 157.92 1072.85 152.32 1076.37 145.92C1071.41 145.92 1065.17 146.64 1057.65 148.08C1050.13 149.52 1042.29 151.36 1034.13 153.6C1029.17 154.88 1024.21 156.4 1019.25 158.16C1014.45 159.76 1011.41 160.56 1010.13 160.56C1007.41 160.56 1006.05 159.12 1006.05 156.24C1006.05 155.44 1006.29 154.8 1006.77 154.32C1007.25 153.68 1008.29 152.96 1009.89 152.16C1013.57 150.08 1018.29 148.16 1024.05 146.4C1029.81 144.48 1036.21 142.88 1043.25 141.6C1049.65 140.32 1055.97 139.44 1062.21 138.96C1068.45 138.48 1074.53 138.32 1080.45 138.48L1081.17 137.04C1081.81 135.44 1082.93 134.64 1084.53 134.64C1086.93 134.64 1088.45 135.92 1089.09 138.48C1093.09 138.64 1097.65 139.2 1102.77 140.16C1105.33 140.64 1106.61 142.08 1106.61 144.48C1106.61 146.88 1105.41 148.08 1103.01 148.08C1101.89 148.08 1099.65 147.76 1096.29 147.12C1093.09 146.48 1089.57 146.16 1085.73 146.16C1082.21 153.04 1075.25 165.28 1064.85 182.88C1062.77 186.4 1061.01 189.44 1059.57 192C1058.13 194.56 1057.01 196.72 1056.21 198.48C1053.33 204.08 1051.17 209.52 1049.73 214.8C1049.25 216.56 1048.29 217.44 1046.85 217.44C1043.65 217.44 1042.05 216 1042.05 213.12C1042.05 211.2 1043.17 207.28 1045.41 201.36C1038.21 206 1029.97 210.24 1020.69 214.08C1011.57 217.76 1002.29 220.72 992.854 222.96C983.414 225.2 974.614 226.32 966.454 226.32ZM1124.34 214.8C1111.38 214.8 1104.9 207.52 1104.9 192.96C1104.9 186.24 1106.5 179.2 1109.7 171.84C1112.9 164.48 1117.14 157.68 1122.42 151.44C1127.7 145.04 1133.54 139.84 1139.94 135.84C1146.5 131.84 1153.14 129.84 1159.86 129.84C1165.78 129.84 1170.1 132.08 1172.82 136.56C1175.54 141.04 1176.9 146 1176.9 151.44C1176.9 158.64 1175.46 166 1172.58 173.52C1169.7 180.88 1165.78 187.68 1160.82 193.92C1155.86 200.16 1150.26 205.2 1144.02 209.04C1137.78 212.88 1131.22 214.8 1124.34 214.8ZM1124.1 207.12C1125.06 207.12 1125.62 207.04 1125.78 206.88C1132.02 206.08 1137.78 203.84 1143.06 200.16C1148.34 196.48 1152.9 191.92 1156.74 186.48C1160.74 180.88 1163.78 174.88 1165.86 168.48C1167.94 162.08 1168.98 155.76 1168.98 149.52C1168.98 145.84 1167.94 142.96 1165.86 140.88C1163.78 138.8 1161.14 137.76 1157.94 137.76C1153.3 137.76 1148.34 139.68 1143.06 143.52C1137.94 147.36 1133.06 152.24 1128.42 158.16C1123.94 164.08 1120.26 170.32 1117.38 176.88C1114.5 183.28 1113.06 189.04 1113.06 194.16C1113.06 202.8 1116.74 207.12 1124.1 207.12ZM1195.14 218.4C1185.86 218.4 1181.22 214 1181.22 205.2C1181.22 199.44 1182.58 193.28 1185.3 186.72C1188.18 180 1192.02 173.52 1196.82 167.28C1201.62 160.88 1206.98 155.12 1212.9 150C1218.82 144.72 1224.9 140.56 1231.14 137.52C1237.38 134.32 1243.38 132.72 1249.14 132.72C1259.38 132.72 1264.5 137.76 1264.5 147.84C1264.5 154.4 1262.9 157.68 1259.7 157.68C1256.82 157.68 1255.38 156.32 1255.38 153.6C1255.38 152.48 1255.62 151.36 1256.1 150.24C1256.74 148.96 1257.06 147.6 1257.06 146.16C1257.06 141.68 1254.02 139.44 1247.94 139.44C1238.18 139.44 1225.94 146.88 1211.22 161.76C1207.7 165.44 1204.26 169.76 1200.9 174.72C1197.54 179.68 1194.74 184.72 1192.5 189.84C1190.42 194.8 1189.38 199.52 1189.38 204C1189.38 208.32 1191.78 210.48 1196.58 210.48C1200.74 210.48 1205.14 209.2 1209.78 206.64C1214.58 204.08 1218.74 201.44 1222.26 198.72C1229.3 193.44 1236.5 186.24 1243.86 177.12C1244.98 175.84 1246.42 174.16 1248.18 172.08C1249.94 170 1251.94 167.68 1254.18 165.12C1254.98 164.32 1255.94 163.92 1257.06 163.92C1259.62 163.92 1260.9 165.2 1260.9 167.76L1251.78 181.44C1245.7 190.4 1242.66 197.76 1242.66 203.52C1242.66 207.68 1244.66 209.76 1248.66 209.76C1252.02 209.76 1255.7 208.88 1259.7 207.12C1263.7 205.36 1266.98 203.6 1269.54 201.84C1274.66 198.48 1280.02 194.32 1285.62 189.36C1291.22 184.24 1296.58 179.12 1301.7 174C1302.34 173.36 1303.3 173.04 1304.58 173.04C1306.98 173.04 1308.18 174 1308.18 175.92C1308.18 177.68 1307.06 179.68 1304.82 181.92C1298.42 188.32 1292.66 193.84 1287.54 198.48C1282.42 202.96 1277.54 206.64 1272.9 209.52C1269.86 211.28 1266.1 213.12 1261.62 215.04C1257.14 216.96 1252.02 217.92 1246.26 217.92C1238.42 217.92 1234.5 213.76 1234.5 205.44C1234.5 202.24 1234.9 199.6 1235.7 197.52C1221.14 211.44 1207.62 218.4 1195.14 218.4ZM1319.97 222.48C1312.61 222.48 1306.93 220.24 1302.93 215.76C1299.09 211.12 1297.17 205.04 1297.17 197.52C1297.17 192.08 1298.13 185.52 1300.05 177.84C1303.41 164.88 1309.09 149.84 1317.09 132.72C1323.33 119.76 1330.05 107.04 1337.25 94.56C1344.45 81.92 1352.37 69.52 1361.01 57.36C1374.77 37.84 1384.37 28.08 1389.81 28.08C1393.33 28.08 1395.09 29.04 1395.09 30.96C1395.09 33.68 1390.61 40.48 1381.65 51.36L1364.85 71.76C1350.29 89.36 1338.37 107.36 1329.09 125.76C1319.97 144.16 1312.85 162.56 1307.73 180.96C1306.29 186.24 1305.57 191.2 1305.57 195.84C1305.57 208 1310.53 214.08 1320.45 214.08C1323.97 214.08 1327.57 213.04 1331.25 210.96C1334.93 209.04 1336.93 208.08 1337.25 208.08C1339.17 208.08 1340.13 209.44 1340.13 212.16C1340.13 214.56 1339.25 216.4 1337.49 217.68C1332.05 220.88 1326.21 222.48 1319.97 222.48ZM1359.31 223.92C1350.35 223.92 1345.87 220.96 1345.87 215.04C1345.87 211.36 1347.15 207.68 1349.71 204C1352.43 200.32 1355.63 196.96 1359.31 193.92C1362.99 190.88 1366.43 188.56 1369.63 186.96C1370.59 186.48 1371.87 186 1373.47 185.52C1375.23 185.04 1376.67 184.8 1377.79 184.8C1379.07 184.8 1379.71 185.28 1379.71 186.24C1379.71 187.04 1378.83 187.92 1377.07 188.88C1369.71 192.4 1363.95 196.64 1359.79 201.6C1355.79 206.4 1353.79 210.32 1353.79 213.36C1353.79 216.24 1356.27 217.68 1361.23 217.68C1365.39 217.68 1369.87 216.64 1374.67 214.56C1379.63 212.48 1384.27 209.76 1388.59 206.4C1393.07 203.04 1396.75 199.44 1399.63 195.6C1402.51 191.76 1403.95 188.08 1403.95 184.56C1403.95 182.16 1403.15 180 1401.55 178.08C1400.11 176.16 1397.71 174.72 1394.35 173.76L1378.51 168.96C1374.51 167.68 1371.63 166 1369.87 163.92C1368.11 161.84 1367.23 159.52 1367.23 156.96C1367.23 152.16 1368.99 147.84 1372.51 144C1376.19 140.16 1380.75 137.12 1386.19 134.88C1391.63 132.64 1396.91 131.52 1402.03 131.52C1407.15 131.52 1411.63 132.8 1415.47 135.36C1419.31 137.76 1421.23 141.04 1421.23 145.2C1421.23 147.6 1420.51 149.84 1419.07 151.92C1417.79 154 1416.27 155.04 1414.51 155.04C1411.79 155.04 1410.43 153.92 1410.43 151.68C1410.43 150.88 1410.83 149.92 1411.63 148.8C1412.59 147.52 1413.07 146.32 1413.07 145.2C1413.07 140.4 1409.39 138 1402.03 138C1398.03 138 1394.03 138.88 1390.03 140.64C1386.19 142.24 1382.99 144.4 1380.43 147.12C1377.87 149.84 1376.59 152.8 1376.59 156C1376.59 159.2 1379.79 161.76 1386.19 163.68L1401.55 168.48C1406.19 169.92 1409.39 171.92 1411.15 174.48C1412.91 176.88 1413.79 179.6 1413.79 182.64C1413.79 189.84 1409.39 197.28 1400.59 204.96C1386.35 217.6 1372.59 223.92 1359.31 223.92Z" fill="black"/>
</g>
<path d="M329.495 517.076C298.435 553.863 263.672 586.265 218.85 607.097C197.358 617.008 181.568 633.971 168.978 653.958C159.07 669.914 147.99 685.19 137.918 700.984C113.24 739.105 80.9977 768.157 39.3597 786.635C29.1231 791.169 19.2144 796.546 9.14236 801.584C3.43861 804.442 -2.27714 807.968 0.920293 815.361C4.10604 823.257 10.4892 820.902 16.3687 818.547C23.5833 815.525 30.6459 812.338 37.8608 809.316C75.3041 793.36 108.886 772.025 134.743 739.785C152.042 718.287 166.988 695.443 181.416 672.107C194.686 650.446 211.633 632.639 234.648 621.392C266.212 606.104 293.926 585.613 318.098 560.427C339.426 538.261 357.895 513.905 378.041 490.896C382.07 486.198 385.256 485.354 389.964 490.228C405.413 506.184 420.521 522.48 434.46 539.935C437.821 544.129 437.821 547.151 433.792 550.853C424.727 559.077 415.486 566.809 405.589 573.862C388.29 586.128 369.315 595.196 350.015 603.76C344.475 606.114 340.446 610.144 343.128 616.529C345.81 623.242 351.69 622.574 357.065 620.395C382.422 610.32 406.433 598.394 428.591 582.097C453.609 563.786 472.244 539.267 494.579 518.447C526.142 488.889 558.212 459.659 584.577 424.902C606.736 395.684 628.907 366.456 651.23 337.238C655.763 331.357 659.792 325.148 666.175 319.935C667.522 324.633 665.671 327.831 664.664 330.854C652.402 366.633 640.654 402.562 631.916 439.511C627.22 459.497 615.964 475.794 600.176 489.056C582.713 503.841 581.202 504.672 566.924 522.643C564.066 526.333 561.045 529.859 559.873 534.405C558.702 538.775 560.377 542.465 564.066 544.984C567.592 547.339 571.281 547.163 574.478 544.644C576.657 542.793 578.508 540.614 580.182 538.259C592.949 518.941 596.802 520.288 613.257 504.672C615.611 502.493 618.293 500.806 619.804 505.516C624.84 522.14 636.424 535.238 644.658 550.022C656.745 571.684 654.566 591.341 635.756 607.461C618.633 622.246 601.839 637.019 589.915 656.502C587.057 661.036 584.374 661.2 580.51 657.17C572.452 648.442 565.904 638.695 559.182 628.784C548.769 613.672 537.853 599.227 519.384 593.005C505.611 588.471 493.196 588.811 481.599 599.554C466.49 613.659 448.851 624.414 430.394 633.318C392.95 651.125 359.872 674.966 329.985 703.515C304.464 727.871 302.613 742.644 267.523 768.346C246.535 783.635 217.148 810.169 193.137 820.246C189.108 821.921 185.243 823.772 181.718 826.291C177.525 829.313 174.503 833.343 177.689 838.884C181.05 844.59 185.911 844.426 191.123 841.567C207.579 832.839 237.795 813.357 253.749 804.115C295.561 779.595 302.778 757.593 335.019 725.517C377.335 683.365 429.21 656.655 481.6 628.106C471.024 652.123 463.797 677.31 450.375 699.488C421.164 748.187 394.965 798.914 360.215 844.09C356.022 849.467 355.342 856.016 358.2 862.225C360.718 867.93 366.762 867.766 371.798 867.93C376.67 868.27 381.531 867.262 386.403 867.262C438.955 866.758 491.51 867.098 544.074 865.587C591.427 864.24 638.78 865.247 686.121 863.912C740.361 862.4 794.751 863.572 848.991 862.061C899.87 860.713 950.572 861.721 1001.45 860.385C1057.53 858.874 1113.45 859.718 1169.52 858.71C1233.83 857.539 1298.31 858.042 1362.79 856.695C1371.19 856.531 1379.24 855.852 1382.93 846.62C1386.46 837.388 1380.58 831.331 1375.04 825.286C1374.03 824.279 1373.02 823.271 1371.85 822.428C1359.93 813.864 1348.35 804.621 1335.92 796.736C1303.51 776.083 1276.64 749.876 1256.84 716.792C1241.55 691.429 1222.42 669.767 1199.07 651.631C1188.5 643.571 1177.58 636.015 1167.17 627.779C1134.92 602.415 1109.91 570.175 1083.88 538.766C1072.3 524.825 1061.55 509.876 1047.61 497.951C1037.03 488.719 1029.81 489.387 1019.73 499.298C1017.56 501.477 1015.54 503.996 1013.53 506.515C999.589 524.146 985.651 541.79 971.714 559.584C967.182 565.289 963.153 565.968 956.43 562.102C923.682 542.96 891.45 523.3 859.382 503.314C826.811 483.164 798.936 457.8 777.608 425.889C752.931 388.775 727.233 352.492 694.827 321.59C691.805 318.731 690.13 315.205 688.784 311.175C682.236 292.864 667.291 289.677 653.517 303.783C641.254 316.376 631.182 330.985 620.265 344.762C600.448 369.786 582.153 395.816 562.172 420.675C562.172 420.675 484.929 518.428 464.786 525.983C444.805 533.539 424.989 485.846 395.614 471.402C365.256 456.793 338.565 506.678 329.498 517.078L329.495 517.076ZM970.541 785.459C958.618 762.615 941.658 744.645 920.505 730.198C901.191 716.924 883.565 701.648 870.129 682.002C866.1 676.121 866.44 672.771 872.811 669.069C886.913 660.845 898.672 649.75 908.582 636.816C921.512 620.192 937.124 606.591 955.431 596.341C972.73 586.605 986.491 573.496 998.25 557.88C1007.66 545.45 1017.06 533.02 1026.45 520.589C1033 512.189 1034.51 512.529 1038.38 522.604C1048.11 548.636 1047.61 574.327 1034.01 598.683C1018.9 625.885 1005.13 653.263 1001.1 684.673C998.917 702.48 995.555 720.11 990.015 737.076C984.475 754.543 978.76 772.009 974.063 789.818C971.721 788.658 971.381 786.971 970.538 785.46L970.541 785.459Z" fill="black"/>
<path d="M209.951 453.576C173.915 465.852 145.916 442.398 133.854 405.727C121.791 369.054 130.455 333.162 166.49 321.039C169.274 320.095 172.057 319.469 174.992 318.832C163.545 317.097 151.795 318.041 140.035 321.983C100.127 335.521 78.635 379.44 91.937 420.045C105.24 460.659 148.396 482.53 188.297 468.993C199.895 465.063 209.951 458.442 218 450.108C215.518 451.382 212.735 452.632 209.951 453.576Z" fill="black"/>
<defs>
<filter id="filter0_d_12_78" x="43.52" y="28.0801" width="1381.71" height="274.88" filterUnits="userSpaceOnUse" color-interpolation-filters="sRGB">
<feFlood flood-opacity="0" result="BackgroundImageFix"/>
<feColorMatrix in="SourceAlpha" type="matrix" values="0 0 0 0 0 0 0 0 0 0 0 0 0 0 0 0 0 0 127 0" result="hardAlpha"/>
<feOffset dy="4"/>
<feGaussianBlur stdDeviation="2"/>
<feComposite in2="hardAlpha" operator="out"/>
<feColorMatrix type="matrix" values="0 0 0 0 0 0 0 0 0 0 0 0 0 0 0 0 0 0 0.25 0"/>
<feBlend mode="normal" in2="BackgroundImageFix" result="effect1_dropShadow_12_78"/>
<feBlend mode="normal" in="SourceGraphic" in2="effect1_dropShadow_12_78" result="shape"/>
</filter>
</defs>
</svg>
