<svg width="1384" height="573" viewBox="0 0 1384 573" fill="none" xmlns="http://www.w3.org/2000/svg">
<path d="M329.495 222.076C298.435 258.863 263.672 291.265 218.85 312.097C197.358 322.008 181.568 338.971 168.978 358.958C159.07 374.914 147.99 390.19 137.918 405.984C113.24 444.105 80.9977 473.157 39.3597 491.635C29.1231 496.169 19.2144 501.546 9.14236 506.584C3.43861 509.442 -2.27714 512.968 0.920293 520.361C4.10604 528.257 10.4892 525.902 16.3687 523.547C23.5833 520.525 30.6459 517.338 37.8608 514.316C75.3041 498.36 108.886 477.025 134.743 444.785C152.042 423.287 166.988 400.443 181.416 377.107C194.686 355.446 211.633 337.639 234.648 326.392C266.212 311.104 293.926 290.613 318.098 265.427C339.426 243.261 357.895 218.905 378.041 195.896C382.07 191.198 385.256 190.354 389.964 195.228C405.413 211.184 420.521 227.48 434.46 244.935C437.821 249.129 437.821 252.151 433.792 255.853C424.727 264.077 415.486 271.809 405.589 278.862C388.29 291.128 369.315 300.196 350.015 308.76C344.475 311.114 340.446 315.144 343.128 321.529C345.81 328.242 351.69 327.574 357.065 325.395C382.422 315.32 406.433 303.394 428.591 287.097C453.609 268.786 472.244 244.267 494.579 223.447C526.142 193.889 558.212 164.659 584.577 129.902C606.736 100.684 628.907 71.4556 651.23 42.2383C655.763 36.3574 659.792 30.1484 666.175 24.935C667.522 29.6328 665.671 32.8311 664.664 35.8535C652.402 71.6328 640.654 107.562 631.916 144.511C627.22 164.497 615.964 180.794 600.176 194.056C582.713 208.841 581.202 209.672 566.924 227.643C564.066 231.333 561.045 234.859 559.873 239.405C558.702 243.775 560.377 247.465 564.066 249.984C567.592 252.339 571.281 252.163 574.478 249.644C576.657 247.793 578.508 245.614 580.182 243.259C592.949 223.941 596.802 225.288 613.257 209.672C615.611 207.493 618.293 205.806 619.804 210.516C624.84 227.14 636.424 240.238 644.658 255.022C656.745 276.684 654.566 296.341 635.756 312.461C618.633 327.246 601.839 342.019 589.915 361.502C587.057 366.036 584.374 366.2 580.51 362.17C572.452 353.442 565.904 343.695 559.182 333.784C548.769 318.672 537.853 304.227 519.384 298.005C505.611 293.471 493.196 293.811 481.599 304.554C466.49 318.659 448.851 329.414 430.394 338.318C392.95 356.125 359.872 379.966 329.985 408.515C304.464 432.871 302.613 447.644 267.523 473.346C246.535 488.635 217.148 515.169 193.137 525.246C189.108 526.921 185.243 528.772 181.718 531.291C177.525 534.313 174.503 538.343 177.689 543.884C181.05 549.59 185.911 549.426 191.123 546.567C207.579 537.839 237.795 518.357 253.749 509.115C295.561 484.595 302.778 462.593 335.019 430.517C377.335 388.365 429.21 361.655 481.6 333.106C471.024 357.123 463.797 382.31 450.375 404.488C421.164 453.187 394.965 503.914 360.215 549.09C356.022 554.467 355.342 561.016 358.2 567.225C360.718 572.93 366.762 572.766 371.798 572.93C376.67 573.27 381.531 572.262 386.403 572.262C438.955 571.758 491.51 572.098 544.074 570.587C591.427 569.24 638.78 570.247 686.121 568.912C740.361 567.4 794.751 568.572 848.991 567.061C899.87 565.713 950.572 566.721 1001.45 565.385C1057.53 563.874 1113.45 564.718 1169.52 563.71C1233.83 562.539 1298.31 563.042 1362.79 561.695C1371.19 561.531 1379.24 560.852 1382.93 551.62C1386.46 542.388 1380.58 536.331 1375.04 530.286C1374.03 529.279 1373.02 528.271 1371.85 527.428C1359.93 518.864 1348.35 509.621 1335.92 501.736C1303.51 481.083 1276.64 454.876 1256.84 421.792C1241.55 396.429 1222.42 374.767 1199.07 356.631C1188.5 348.571 1177.58 341.015 1167.17 332.779C1134.92 307.415 1109.91 275.175 1083.88 243.766C1072.3 229.825 1061.55 214.876 1047.61 202.951C1037.03 193.719 1029.81 194.387 1019.73 204.298C1017.56 206.477 1015.54 208.996 1013.53 211.515C999.589 229.146 985.651 246.79 971.714 264.584C967.182 270.289 963.153 270.968 956.43 267.102C923.682 247.96 891.45 228.3 859.382 208.314C826.811 188.164 798.936 162.8 777.608 130.889C752.931 93.7755 727.233 57.4924 694.827 26.5897C691.805 23.7312 690.13 20.2049 688.784 16.1747C682.236 -2.1363 667.291 -5.32283 653.517 8.78253C641.254 21.3763 631.182 35.9852 620.265 49.7622C600.448 74.7861 582.153 100.816 562.172 125.675C562.172 125.675 484.929 223.428 464.786 230.983C444.805 238.539 424.989 190.846 395.614 176.402C365.256 161.793 338.565 211.678 329.498 222.078L329.495 222.076ZM970.541 490.459C958.618 467.615 941.658 449.645 920.505 435.198C901.191 421.924 883.565 406.648 870.129 387.002C866.1 381.121 866.44 377.771 872.811 374.069C886.913 365.845 898.672 354.75 908.582 341.816C921.512 325.192 937.124 311.591 955.431 301.341C972.73 291.605 986.491 278.496 998.25 262.88C1007.66 250.45 1017.06 238.02 1026.45 225.589C1033 217.189 1034.51 217.529 1038.38 227.604C1048.11 253.636 1047.61 279.327 1034.01 303.683C1018.9 330.885 1005.13 358.263 1001.1 389.673C998.917 407.48 995.555 425.11 990.015 442.076C984.475 459.543 978.76 477.009 974.063 494.818C971.721 493.658 971.381 491.971 970.538 490.46L970.541 490.459Z" fill="black"/>
<path d="M209.951 158.576C173.915 170.852 145.916 147.398 133.854 110.727C121.791 74.0539 130.455 38.1622 166.49 26.039C169.274 25.0947 172.057 24.4689 174.992 23.832C163.545 22.0972 151.795 23.0415 140.035 26.9832C100.127 40.5214 78.635 84.4398 91.937 125.045C105.24 165.659 148.396 187.53 188.297 173.993C199.895 170.063 209.951 163.442 218 155.108C215.518 156.382 212.735 157.632 209.951 158.576Z" fill="black"/>
</svg>
